{"asset":{"version":"2.0","generator":"babylon.js glTF exporter for maya 2018 v20190628.7"},"scene":0,"scenes":[{"nodes":[0],"extensions":{}}],"nodes":[{"children":[1,7],"translation":[0.0,0.0,0.0],"rotation":[0.0,0.0,0.0,1.0],"scale":[5.41746044,5.41746044,5.41746044],"name":"Root_GRP"},{"children":[2,3,4,5,6],"translation":[0.0,0.0,0.0],"rotation":[0.0,0.0,0.0,1.0],"scale":[1.0,1.0,1.0],"name":"Lower_Torso_GRP"},{"mesh":0,"translation":[0.0,0.0,0.0],"rotation":[0.0,0.0,0.0,1.0],"scale":[1.0,1.0,1.0],"name":"Fauld_Chainmail"},{"mesh":1,"translation":[0.0,-1.00613962E-16,-2.77555756E-17],"rotation":[-0.0178018957,0.2979118,0.0359975249,0.9537483],"scale":[1.0,1.0,1.0],"name":"Tasset"},{"mesh":2,"translation":[0.0,0.0,0.0],"rotation":[0.0,0.0,0.0,1.0],"scale":[1.0,1.0,1.0],"name":"Fauld"},{"mesh":3,"translation":[-6.938894E-18,0.0,0.0],"rotation":[0.0,-0.1391731,0.0,0.990268052],"scale":[1.0,1.0,1.0],"name":"Tasset_Belt_1"},{"mesh":4,"translation":[-2.77555756E-17,0.0,0.0],"rotation":[0.0,-0.522498548,0.0,0.852640152],"scale":[1.0,1.0,1.0],"name":"Tasset_Belt_2"},{"children":[8,9,10,11,12,13,14,15,16,17],"translation":[0.0,0.0,0.0],"rotation":[0.0,0.0,0.0,1.0],"scale":[0.184588328,0.184588328,0.184588328],"name":"Leg_Harness_GRP"},{"mesh":5,"translation":[0.0,0.0,0.0],"rotation":[0.0,0.0,0.0,1.0],"scale":[1.0,1.0,1.0],"name":"Sabaton"},{"mesh":6,"translation":[-1.6479873E-16,-1.73472348E-16,-1.110223E-16],"rotation":[0.0270326845,0.00061301986,0.02266287,0.9993774],"scale":[1.0,1.0,1.0],"name":"Greaves_Clip_4"},{"mesh":7,"translation":[0.0,0.0,0.0],"rotation":[0.0,0.0,0.0,1.0],"scale":[1.0,1.0,1.0],"name":"Greaves"},{"mesh":8,"translation":[4.16333634E-17,2.220446E-16,4.16333634E-17],"rotation":[0.6574263,-0.296000332,0.35243237,0.5966288],"scale":[1.0,1.0,1.0],"name":"Greaves_Clip_3"},{"mesh":9,"translation":[-1.75207071E-16,-1.38777878E-17,0.0],"rotation":[0.078741014,0.001785609,0.0226007327,0.9966373],"scale":[1.0,1.0,1.0],"name":"Greaves_Clip_2"},{"mesh":10,"translation":[-5.551115E-17,-2.220446E-16,-3.469447E-17],"rotation":[0.6444575,-0.309558749,0.372768462,0.5915163],"scale":[1.0,1.0,1.0],"name":"Greaves_Clip_1"},{"mesh":11,"translation":[0.0,0.0,0.0],"rotation":[0.0,0.0,0.0,1.0],"scale":[1.0,1.0,1.0],"name":"Poleyn_Belt"},{"mesh":12,"translation":[0.0,0.0,0.0],"rotation":[0.0,0.0,0.0,1.0],"scale":[1.0,1.0,1.0],"name":"Poleyn_1"},{"mesh":13,"translation":[-1.38777878E-17,0.0,0.0],"rotation":[0.0,-0.07469365,0.0,0.9972065],"scale":[1.0,1.0,1.0],"name":"Poleyn_2"},{"mesh":14,"translation":[0.0,0.0,0.0],"rotation":[0.0,0.0,0.0,1.0],"scale":[1.0,1.0,1.0],"name":"Cuisse"}],"meshes":[{"primitives":[{"attributes":{"POSITION":1,"NORMAL":2,"TEXCOORD_0":3},"indices":0,"mode":4,"material":0}],"name":"Fauld_Chainmail"},{"primitives":[{"attributes":{"POSITION":5,"NORMAL":6,"TEXCOORD_0":7},"indices":4,"mode":4,"material":1}],"name":"Tasset"},{"primitives":[{"attributes":{"POSITION":9,"NORMAL":10,"TEXCOORD_0":11},"indices":8,"mode":4,"material":1}],"name":"Fauld"},{"primitives":[{"attributes":{"POSITION":13,"NORMAL":14,"TEXCOORD_0":15},"indices":12,"mode":4,"material":1}],"name":"Tasset_Belt_1"},{"primitives":[{"attributes":{"POSITION":17,"NORMAL":18,"TEXCOORD_0":19},"indices":16,"mode":4,"material":1}],"name":"Tasset_Belt_2"},{"primitives":[{"attributes":{"POSITION":21,"NORMAL":22,"TEXCOORD_0":23},"indices":20,"mode":4,"material":1}],"name":"Sabaton"},{"primitives":[{"attributes":{"POSITION":25,"NORMAL":26,"TEXCOORD_0":27},"indices":24,"mode":4,"material":1}],"name":"Greaves_Clip_4"},{"primitives":[{"attributes":{"POSITION":29,"NORMAL":30,"TEXCOORD_0":31},"indices":28,"mode":4,"material":1}],"name":"Greaves"},{"primitives":[{"attributes":{"POSITION":33,"NORMAL":34,"TEXCOORD_0":35},"indices":32,"mode":4,"material":1}],"name":"Greaves_Clip_3"},{"primitives":[{"attributes":{"POSITION":37,"NORMAL":38,"TEXCOORD_0":39},"indices":36,"mode":4,"material":1}],"name":"Greaves_Clip_2"},{"primitives":[{"attributes":{"POSITION":41,"NORMAL":42,"TEXCOORD_0":43},"indices":40,"mode":4,"material":1}],"name":"Greaves_Clip_1"},{"primitives":[{"attributes":{"POSITION":45,"NORMAL":46,"TEXCOORD_0":47},"indices":44,"mode":4,"material":1}],"name":"Poleyn_Belt"},{"primitives":[{"attributes":{"POSITION":49,"NORMAL":50,"TEXCOORD_0":51},"indices":48,"mode":4,"material":1}],"name":"Poleyn_1"},{"primitives":[{"attributes":{"POSITION":53,"NORMAL":54,"TEXCOORD_0":55},"indices":52,"mode":4,"material":1}],"name":"Poleyn_2"},{"primitives":[{"attributes":{"POSITION":57,"NORMAL":58,"TEXCOORD_0":59},"indices":56,"mode":4,"material":1}],"name":"Cuisse"}],"accessors":[{"bufferView":0,"componentType":5123,"count":420,"type":"SCALAR","name":"accessorIndices"},{"bufferView":1,"componentType":5126,"count":150,"max":[0.21285145,0.7683983,0.177974269],"min":[-0.212851435,0.6500871,-0.1390971],"type":"VEC3","name":"accessorPositions"},{"bufferView":1,"byteOffset":1800,"componentType":5126,"count":150,"type":"VEC3","name":"accessorNormals"},{"bufferView":2,"componentType":5126,"count":150,"type":"VEC2","name":"accessorUVs"},{"bufferView":0,"byteOffset":840,"componentType":5123,"count":984,"type":"SCALAR","name":"accessorIndices"},{"bufferView":1,"byteOffset":3600,"componentType":5126,"count":268,"max":[0.2050755,0.8579154,0.2385248],"min":[-0.183756739,0.5397748,-0.05553689],"type":"VEC3","name":"accessorPositions"},{"bufferView":1,"byteOffset":6816,"componentType":5126,"count":268,"type":"VEC3","name":"accessorNormals"},{"bufferView":2,"byteOffset":1200,"componentType":5126,"count":268,"type":"VEC2","name":"accessorUVs"},{"bufferView":0,"byteOffset":2808,"componentType":5123,"count":1008,"type":"SCALAR","name":"accessorIndices"},{"bufferView":1,"byteOffset":10032,"componentType":5126,"count":345,"max":[0.208706841,1.00617051,0.177974254],"min":[-0.208706841,0.7518321,-0.1390971],"type":"VEC3","name":"accessorPositions"},{"bufferView":1,"byteOffset":14172,"componentType":5126,"count":345,"type":"VEC3","name":"accessorNormals"},{"bufferView":2,"byteOffset":3344,"componentType":5126,"count":345,"type":"VEC2","name":"accessorUVs"},{"bufferView":0,"byteOffset":4824,"componentType":5123,"count":1320,"type":"SCALAR","name":"accessorIndices"},{"bufferView":1,"byteOffset":18312,"componentType":5126,"count":276,"max":[0.108609721,0.856639445,0.1859084],"min":[-0.0128461681,0.760739267,0.137027889],"type":"VEC3","name":"accessorPositions"},{"bufferView":1,"byteOffset":21624,"componentType":5126,"count":276,"type":"VEC3","name":"accessorNormals"},{"bufferView":2,"byteOffset":6104,"componentType":5126,"count":276,"type":"VEC2","name":"accessorUVs"},{"bufferView":0,"byteOffset":7464,"componentType":5123,"count":1320,"type":"SCALAR","name":"accessorIndices"},{"bufferView":1,"byteOffset":24936,"componentType":5126,"count":276,"max":[0.1677336,0.856639445,0.210523948],"min":[-0.0239250362,0.7626645,-0.141701534],"type":"VEC3","name":"accessorPositions"},{"bufferView":1,"byteOffset":28248,"componentType":5126,"count":276,"type":"VEC3","name":"accessorNormals"},{"bufferView":2,"byteOffset":8312,"componentType":5126,"count":276,"type":"VEC2","name":"accessorUVs"},{"bufferView":0,"byteOffset":10104,"componentType":5123,"count":1704,"type":"SCALAR","name":"accessorIndices"},{"bufferView":1,"byteOffset":31560,"componentType":5126,"count":400,"max":[1.54566789,0.574804842,0.7529907],"min":[-1.54566789,-0.002694718,-0.617866635],"type":"VEC3","name":"accessorPositions"},{"bufferView":1,"byteOffset":36360,"componentType":5126,"count":400,"type":"VEC3","name":"accessorNormals"},{"bufferView":2,"byteOffset":10520,"componentType":5126,"count":400,"type":"VEC2","name":"accessorUVs"},{"bufferView":0,"byteOffset":13512,"componentType":5123,"count":144,"type":"SCALAR","name":"accessorIndices"},{"bufferView":1,"byteOffset":41160,"componentType":5126,"count":56,"max":[1.19940937,0.918210268,-0.4182395],"min":[-1.12959158,0.6917376,-0.465212226],"type":"VEC3","name":"accessorPositions"},{"bufferView":1,"byteOffset":41832,"componentType":5126,"count":56,"type":"VEC3","name":"accessorNormals"},{"bufferView":2,"byteOffset":13720,"componentType":5126,"count":56,"type":"VEC2","name":"accessorUVs"},{"bufferView":0,"byteOffset":13800,"componentType":5123,"count":1536,"type":"SCALAR","name":"accessorIndices"},{"bufferView":1,"byteOffset":42504,"componentType":5126,"count":396,"max":[1.24881208,2.211789,0.119340658],"min":[-1.248812,0.210746989,-0.645562232],"type":"VEC3","name":"accessorPositions"},{"bufferView":1,"byteOffset":47256,"componentType":5126,"count":396,"type":"VEC3","name":"accessorNormals"},{"bufferView":2,"byteOffset":14168,"componentType":5126,"count":396,"type":"VEC2","name":"accessorUVs"},{"bufferView":0,"byteOffset":16872,"componentType":5123,"count":216,"type":"SCALAR","name":"accessorIndices"},{"bufferView":1,"byteOffset":52008,"componentType":5126,"count":120,"max":[0.2497092,0.3749689,-0.6414561],"min":[-0.622074842,-0.8268923,-0.9060482],"type":"VEC3","name":"accessorPositions"},{"bufferView":1,"byteOffset":53448,"componentType":5126,"count":120,"type":"VEC3","name":"accessorNormals"},{"bufferView":2,"byteOffset":17336,"componentType":5126,"count":120,"type":"VEC2","name":"accessorUVs"},{"bufferView":0,"byteOffset":17304,"componentType":5123,"count":144,"type":"SCALAR","name":"accessorIndices"},{"bufferView":1,"byteOffset":54888,"componentType":5126,"count":56,"max":[1.25687766,1.94376016,-0.570812941],"min":[-1.089495,1.71765029,-0.628584564],"type":"VEC3","name":"accessorPositions"},{"bufferView":1,"byteOffset":55560,"componentType":5126,"count":56,"type":"VEC3","name":"accessorNormals"},{"bufferView":2,"byteOffset":18296,"componentType":5126,"count":56,"type":"VEC2","name":"accessorUVs"},{"bufferView":0,"byteOffset":17592,"componentType":5123,"count":216,"type":"SCALAR","name":"accessorIndices"},{"bufferView":1,"byteOffset":56232,"componentType":5126,"count":120,"max":[0.240022391,0.174369812,-1.70365465],"min":[-0.336121619,-0.702667356,-1.92379177],"type":"VEC3","name":"accessorPositions"},{"bufferView":1,"byteOffset":57672,"componentType":5126,"count":120,"type":"VEC3","name":"accessorNormals"},{"bufferView":2,"byteOffset":18744,"componentType":5126,"count":120,"type":"VEC2","name":"accessorUVs"},{"bufferView":0,"byteOffset":18024,"componentType":5123,"count":1212,"type":"SCALAR","name":"accessorIndices"},{"bufferView":1,"byteOffset":59112,"componentType":5126,"count":294,"max":[1.05651116,2.56421614,0.158184633],"min":[-1.05651116,2.378564,-0.3646468],"type":"VEC3","name":"accessorPositions"},{"bufferView":1,"byteOffset":62640,"componentType":5126,"count":294,"type":"VEC3","name":"accessorNormals"},{"bufferView":2,"byteOffset":19704,"componentType":5126,"count":294,"type":"VEC2","name":"accessorUVs"},{"bufferView":0,"byteOffset":20448,"componentType":5123,"count":768,"type":"SCALAR","name":"accessorIndices"},{"bufferView":1,"byteOffset":66168,"componentType":5126,"count":308,"max":[1.27423978,2.99240446,0.402757466],"min":[-1.27423978,2.21404362,-0.539347649],"type":"VEC3","name":"accessorPositions"},{"bufferView":1,"byteOffset":69864,"componentType":5126,"count":308,"type":"VEC3","name":"accessorNormals"},{"bufferView":2,"byteOffset":22056,"componentType":5126,"count":308,"type":"VEC2","name":"accessorUVs"},{"bufferView":0,"byteOffset":21984,"componentType":5123,"count":336,"type":"SCALAR","name":"accessorIndices"},{"bufferView":1,"byteOffset":73560,"componentType":5126,"count":124,"max":[1.02542973,2.84066582,0.393470824],"min":[-1.08240438,2.13212347,-0.518343866],"type":"VEC3","name":"accessorPositions"},{"bufferView":1,"byteOffset":75048,"componentType":5126,"count":124,"type":"VEC3","name":"accessorNormals"},{"bufferView":2,"byteOffset":24520,"componentType":5126,"count":124,"type":"VEC2","name":"accessorUVs"},{"bufferView":0,"byteOffset":22656,"componentType":5123,"count":816,"type":"SCALAR","name":"accessorIndices"},{"bufferView":1,"byteOffset":76536,"componentType":5126,"count":264,"max":[1.09147954,4.25399446,0.674457967],"min":[-1.09147954,2.654666,-0.131430656],"type":"VEC3","name":"accessorPositions"},{"bufferView":1,"byteOffset":79704,"componentType":5126,"count":264,"type":"VEC3","name":"accessorNormals"},{"bufferView":2,"byteOffset":25512,"componentType":5126,"count":264,"type":"VEC2","name":"accessorUVs"}],"bufferViews":[{"buffer":0,"byteLength":24288,"name":"bufferViewScalar"},{"buffer":0,"byteOffset":24288,"byteLength":82872,"byteStride":12,"name":"bufferViewFloatVec3"},{"buffer":0,"byteOffset":107160,"byteLength":27624,"byteStride":8,"name":"bufferViewFloatVec2"}],"buffers":[{"uri":"knight_piece_3.bin","byteLength":134784}],"materials":[{"pbrMetallicRoughness":{"baseColorFactor":[0.8,0.8,0.8,1.0],"baseColorTexture":{"index":2,"texCoord":0},"metallicFactor":1.0,"roughnessFactor":1.0,"metallicRoughnessTexture":{"index":1,"texCoord":0}},"normalTexture":{"index":0,"texCoord":0},"occlusionTexture":{"index":1,"texCoord":0},"emissiveFactor":[0.0,0.0,0.0],"alphaMode":"BLEND","name":"KnightExport"},{"pbrMetallicRoughness":{"baseColorFactor":[0.8,0.8,0.8,1.0],"baseColorTexture":{"index":2,"texCoord":0},"metallicFactor":1.0,"roughnessFactor":1.0,"metallicRoughnessTexture":{"index":1,"texCoord":0}},"normalTexture":{"index":0,"texCoord":0},"occlusionTexture":{"index":1,"texCoord":0},"emissiveFactor":[0.0,0.0,0.0],"alphaMode":"OPAQUE","name":"KnightExport"}],"textures":[{"sampler":0,"source":0,"name":"Knight_Normal.png"},{"sampler":1,"source":1,"name":"Knight_ORM.jpg"},{"sampler":2,"source":2,"name":"KnightExport_baseColor.png"}],"images":[{"uri":"Knight_Normal.png"},{"uri":"Knight_ORM.jpg"},{"uri":"KnightExport_baseColor.png"}],"samplers":[{"magFilter":9729,"minFilter":9987,"wrapS":10497,"wrapT":10497},{"magFilter":9729,"minFilter":9987,"wrapS":10497,"wrapT":10497},{"magFilter":9729,"minFilter":9987,"wrapS":10497,"wrapT":10497}]}