{"asset":{"version":"2.0","generator":"babylon.js glTF exporter for maya 2018 v20190628.7"},"scene":0,"scenes":[{"nodes":[0],"extensions":{}}],"nodes":[{"children":[1,23,28],"translation":[0.0,0.0,0.0],"rotation":[0.0,0.0,0.0,1.0],"scale":[5.41746044,5.41746044,5.41746044],"name":"Root_GRP"},{"children":[2,3,4,5,6,7,8,9,10,11,12,13,14,15,16,17,18,19,20,21,22],"translation":[0.0,0.0,0.0],"rotation":[0.0,0.0,0.0,1.0],"scale":[0.184588328,0.184588328,0.184588328],"name":"Arm_Harness_GRP"},{"mesh":0,"translation":[5.689893E-16,-4.57967E-16,0.0],"rotation":[-0.0445577949,0.0165837165,0.080848746,0.9955918],"scale":[1.0,1.0,1.0],"name":"Arm_Rerebrace_Clip_3"},{"mesh":1,"translation":[-3.469447E-18,9.089951E-16,1.110223E-16],"rotation":[-0.0429685935,0.0203498565,0.166069463,0.9849673],"scale":[1.0,1.0,1.0],"name":"Arm_Rerebrace_Clip_1"},{"mesh":2,"translation":[2.08166817E-16,-5.551115E-16,-2.220446E-16],"rotation":[-0.19569765,0.00165182666,0.104044385,0.975127935],"scale":[1.0,1.0,1.0],"name":"Arm_Gauntlet_Clip_4"},{"mesh":3,"translation":[1.80411242E-16,2.220446E-16,4.440892E-16],"rotation":[-0.19569765,0.00165182666,0.104044385,0.975127935],"scale":[1.0,1.0,1.0],"name":"Arm_Gauntlet_Clip_3"},{"mesh":4,"translation":[-2.220446E-16,-4.440892E-16,2.44249065E-15],"rotation":[0.581348062,-0.09866245,0.2580687,0.7653108],"scale":[1.0,1.0,1.0],"name":"Arm_Gauntlet_Clip_2"},{"mesh":5,"translation":[3.330669E-16,0.0,2.220446E-16],"rotation":[0.577523,-0.0753685758,0.2112134,0.784968555],"scale":[1.0,1.0,1.0],"name":"Arm_Gauntlet_Clip_1"},{"mesh":6,"translation":[8.881784E-16,-3.996803E-15,-5.551115E-16],"rotation":[0.590351343,-0.2713449,0.6172543,0.4436827],"scale":[1.0,1.0,1.0],"name":"Arm_Rerebrace_Clip_4"},{"mesh":7,"translation":[-2.220446E-16,-8.881784E-16,-4.440892E-16],"rotation":[0.6091368,-0.18918474,0.493005455,0.591698468],"scale":[1.0,1.0,1.0],"name":"Arm_Rerebrace_Clip_2"},{"mesh":8,"translation":[0.0,0.0,0.0],"rotation":[0.0,0.0,0.0,1.0],"scale":[1.0,1.0,1.0],"name":"Arm_Gaunelt_5"},{"mesh":9,"translation":[0.0,0.0,0.0],"rotation":[0.0,0.0,0.0,1.0],"scale":[1.0,1.0,1.0],"name":"Arm_Gauntlet_4"},{"mesh":10,"translation":[0.0,8.881784E-16,9.436896E-16],"rotation":[0.09904161,-0.6882649,0.21309568,0.6863472],"scale":[1.0,1.0,1.0],"name":"Arm_Connector"},{"mesh":11,"translation":[0.0,0.0,0.0],"rotation":[0.0,0.0,0.0,1.0],"scale":[1.0,1.0,1.0],"name":"Arm_Gaunlet_2"},{"mesh":12,"translation":[0.0,0.0,0.0],"rotation":[0.0,0.0,0.0,1.0],"scale":[1.0,1.0,1.0],"name":"Arm_Gauntlet_1"},{"mesh":13,"translation":[0.0,0.0,0.0],"rotation":[0.0,0.0,0.0,1.0],"scale":[1.0,1.0,1.0],"name":"Arm_Gauntlet_3"},{"mesh":14,"translation":[0.0,8.881784E-16,9.436896E-16],"rotation":[0.09904161,-0.6882649,0.21309568,0.6863472],"scale":[1.0,1.0,1.0],"name":"Arm_Couter"},{"mesh":15,"translation":[0.0,0.0,0.0],"rotation":[0.0,0.0,0.0,1.0],"scale":[1.0,1.0,1.0],"name":"Arm_Rerebrace_Belt"},{"mesh":16,"translation":[0.0,0.0,0.0],"rotation":[0.0,0.0,0.0,1.0],"scale":[1.0,1.0,1.0],"name":"Arm_Rerebrace"},{"mesh":17,"translation":[0.0,0.0,0.0],"rotation":[0.0,0.0,0.0,1.0],"scale":[1.0,1.0,1.0],"name":"Arm_Vambrace"},{"mesh":18,"translation":[0.0,0.0,0.0],"rotation":[0.0,0.0,0.0,1.0],"scale":[1.0,1.0,1.0],"name":"Inner_Pauldron"},{"mesh":19,"translation":[4.440892E-16,0.0,0.0],"rotation":[0.0,0.0,0.286960065,0.957942545],"scale":[1.0,1.0,1.0],"name":"Pauldron_L"},{"mesh":20,"translation":[4.440892E-16,0.0,0.0],"rotation":[0.0,0.0,0.286960065,0.957942545],"scale":[1.0,1.0,1.0],"name":"Pauldron_R"},{"children":[24,25,26,27],"translation":[0.0,0.0,0.0],"rotation":[0.0,0.0,0.0,1.0],"scale":[1.0,1.0,1.0],"name":"Upper_Torso_GRP"},{"mesh":21,"translation":[0.0,0.0,0.0],"rotation":[0.0,0.0,0.0,1.0],"scale":[1.0,1.0,1.0],"name":"Curiass"},{"mesh":22,"translation":[0.0,0.0,0.0],"rotation":[0.0,0.0,0.0,1.0],"scale":[1.0,1.0,1.0],"name":"Gorget_1"},{"mesh":23,"translation":[0.0,0.0,0.0],"rotation":[0.0,0.0,0.0,1.0],"scale":[1.0,1.0,1.0],"name":"Gorget_2"},{"mesh":24,"translation":[0.0,0.0,0.0],"rotation":[0.0,0.0,0.0,1.0],"scale":[1.0,1.0,1.0],"name":"Curiass_Belt"},{"children":[29,30],"translation":[-5.293956E-23,0.0,0.0],"rotation":[0.0,0.0,0.0,1.0],"scale":[0.184588328,0.184588328,0.184588328],"name":"Helm"},{"mesh":25,"translation":[0.0,0.0,0.0],"rotation":[0.0,0.0,0.0,1.0],"scale":[1.0,1.0,1.0],"name":"Helm_Visor"},{"mesh":26,"translation":[0.0,0.0,0.0],"rotation":[0.0,0.0,0.0,1.0],"scale":[1.0,1.0,1.0],"name":"Helm_Body"}],"meshes":[{"primitives":[{"attributes":{"POSITION":1,"NORMAL":2,"TEXCOORD_0":3},"indices":0,"mode":4,"material":0}],"name":"Arm_Rerebrace_Clip_3"},{"primitives":[{"attributes":{"POSITION":5,"NORMAL":6,"TEXCOORD_0":7},"indices":4,"mode":4,"material":0}],"name":"Arm_Rerebrace_Clip_1"},{"primitives":[{"attributes":{"POSITION":9,"NORMAL":10,"TEXCOORD_0":11},"indices":8,"mode":4,"material":0}],"name":"Arm_Gauntlet_Clip_4"},{"primitives":[{"attributes":{"POSITION":13,"NORMAL":14,"TEXCOORD_0":15},"indices":12,"mode":4,"material":0}],"name":"Arm_Gauntlet_Clip_3"},{"primitives":[{"attributes":{"POSITION":17,"NORMAL":18,"TEXCOORD_0":19},"indices":16,"mode":4,"material":0}],"name":"Arm_Gauntlet_Clip_2"},{"primitives":[{"attributes":{"POSITION":21,"NORMAL":22,"TEXCOORD_0":23},"indices":20,"mode":4,"material":0}],"name":"Arm_Gauntlet_Clip_1"},{"primitives":[{"attributes":{"POSITION":25,"NORMAL":26,"TEXCOORD_0":27},"indices":24,"mode":4,"material":0}],"name":"Arm_Rerebrace_Clip_4"},{"primitives":[{"attributes":{"POSITION":29,"NORMAL":30,"TEXCOORD_0":31},"indices":28,"mode":4,"material":0}],"name":"Arm_Rerebrace_Clip_2"},{"primitives":[{"attributes":{"POSITION":33,"NORMAL":34,"TEXCOORD_0":35},"indices":32,"mode":4,"material":0}],"name":"Arm_Gaunelt_5"},{"primitives":[{"attributes":{"POSITION":37,"NORMAL":38,"TEXCOORD_0":39},"indices":36,"mode":4,"material":0}],"name":"Arm_Gauntlet_4"},{"primitives":[{"attributes":{"POSITION":41,"NORMAL":42,"TEXCOORD_0":43},"indices":40,"mode":4,"material":0}],"name":"Arm_Connector"},{"primitives":[{"attributes":{"POSITION":45,"NORMAL":46,"TEXCOORD_0":47},"indices":44,"mode":4,"material":0}],"name":"Arm_Gaunlet_2"},{"primitives":[{"attributes":{"POSITION":49,"NORMAL":50,"TEXCOORD_0":51},"indices":48,"mode":4,"material":0}],"name":"Arm_Gauntlet_1"},{"primitives":[{"attributes":{"POSITION":53,"NORMAL":54,"TEXCOORD_0":55},"indices":52,"mode":4,"material":0}],"name":"Arm_Gauntlet_3"},{"primitives":[{"attributes":{"POSITION":57,"NORMAL":58,"TEXCOORD_0":59},"indices":56,"mode":4,"material":0}],"name":"Arm_Couter"},{"primitives":[{"attributes":{"POSITION":61,"NORMAL":62,"TEXCOORD_0":63},"indices":60,"mode":4,"material":0}],"name":"Arm_Rerebrace_Belt"},{"primitives":[{"attributes":{"POSITION":65,"NORMAL":66,"TEXCOORD_0":67},"indices":64,"mode":4,"material":0}],"name":"Arm_Rerebrace"},{"primitives":[{"attributes":{"POSITION":69,"NORMAL":70,"TEXCOORD_0":71},"indices":68,"mode":4,"material":0}],"name":"Arm_Vambrace"},{"primitives":[{"attributes":{"POSITION":73,"NORMAL":74,"TEXCOORD_0":75},"indices":72,"mode":4,"material":0}],"name":"Inner_Pauldron"},{"primitives":[{"attributes":{"POSITION":77,"NORMAL":78,"TEXCOORD_0":79},"indices":76,"mode":4,"material":0}],"name":"Pauldron_L"},{"primitives":[{"attributes":{"POSITION":81,"NORMAL":82,"TEXCOORD_0":83},"indices":80,"mode":4,"material":0}],"name":"Pauldron_R"},{"primitives":[{"attributes":{"POSITION":85,"NORMAL":86,"TEXCOORD_0":87},"indices":84,"mode":4,"material":0}],"name":"Curiass"},{"primitives":[{"attributes":{"POSITION":89,"NORMAL":90,"TEXCOORD_0":91},"indices":88,"mode":4,"material":0}],"name":"Gorget_1"},{"primitives":[{"attributes":{"POSITION":93,"NORMAL":94,"TEXCOORD_0":95},"indices":92,"mode":4,"material":0}],"name":"Gorget_2"},{"primitives":[{"attributes":{"POSITION":97,"NORMAL":98,"TEXCOORD_0":99},"indices":96,"mode":4,"material":0}],"name":"Curiass_Belt"},{"primitives":[{"attributes":{"POSITION":101,"NORMAL":102,"TEXCOORD_0":103},"indices":100,"mode":4,"material":0}],"name":"Helm_Visor"},{"primitives":[{"attributes":{"POSITION":105,"NORMAL":106,"TEXCOORD_0":107},"indices":104,"mode":4,"material":0}],"name":"Helm_Body"}],"accessors":[{"bufferView":0,"componentType":5123,"count":144,"type":"SCALAR","name":"accessorIndices"},{"bufferView":1,"componentType":5126,"count":56,"max":[2.8932116,5.63852167,0.7190231],"min":[-1.217951,4.84754372,0.5719344],"type":"VEC3","name":"accessorPositions"},{"bufferView":1,"byteOffset":672,"componentType":5126,"count":56,"type":"VEC3","name":"accessorNormals"},{"bufferView":2,"componentType":5126,"count":56,"type":"VEC2","name":"accessorUVs"},{"bufferView":0,"byteOffset":288,"componentType":5123,"count":144,"type":"SCALAR","name":"accessorIndices"},{"bufferView":1,"byteOffset":1344,"componentType":5126,"count":56,"max":[3.698511,6.10675,0.6661884],"min":[0.0137236118,4.73037529,0.526512146],"type":"VEC3","name":"accessorPositions"},{"bufferView":1,"byteOffset":2016,"componentType":5126,"count":56,"type":"VEC3","name":"accessorNormals"},{"bufferView":2,"byteOffset":448,"componentType":5126,"count":56,"type":"VEC2","name":"accessorUVs"},{"bufferView":0,"byteOffset":576,"componentType":5123,"count":144,"type":"SCALAR","name":"accessorIndices"},{"bufferView":1,"byteOffset":2688,"componentType":5126,"count":56,"max":[2.87243819,4.58458853,2.020737],"min":[-1.03074312,3.66261053,1.83059192],"type":"VEC3","name":"accessorPositions"},{"bufferView":1,"byteOffset":3360,"componentType":5126,"count":56,"type":"VEC3","name":"accessorNormals"},{"bufferView":2,"byteOffset":896,"componentType":5126,"count":56,"type":"VEC2","name":"accessorUVs"},{"bufferView":0,"byteOffset":864,"componentType":5123,"count":144,"type":"SCALAR","name":"accessorIndices"},{"bufferView":1,"byteOffset":4032,"componentType":5126,"count":56,"max":[2.850159,4.88844442,2.013896],"min":[-0.874555349,4.0036006,1.83059192],"type":"VEC3","name":"accessorPositions"},{"bufferView":1,"byteOffset":4704,"componentType":5126,"count":56,"type":"VEC3","name":"accessorNormals"},{"bufferView":2,"byteOffset":1344,"componentType":5126,"count":56,"type":"VEC2","name":"accessorUVs"},{"bufferView":0,"byteOffset":1152,"componentType":5123,"count":216,"type":"SCALAR","name":"accessorIndices"},{"bufferView":1,"byteOffset":5376,"componentType":5126,"count":120,"max":[3.19806,2.34991932,-3.99911833],"min":[-0.0387377739,0.396307,-4.667875],"type":"VEC3","name":"accessorPositions"},{"bufferView":1,"byteOffset":6816,"componentType":5126,"count":120,"type":"VEC3","name":"accessorNormals"},{"bufferView":2,"byteOffset":1792,"componentType":5126,"count":120,"type":"VEC2","name":"accessorUVs"},{"bufferView":0,"byteOffset":1584,"componentType":5123,"count":216,"type":"SCALAR","name":"accessorIndices"},{"bufferView":1,"byteOffset":8256,"componentType":5126,"count":120,"max":[3.06749415,2.40886283,-4.30841637],"min":[-0.2862754,0.840268,-4.87765551],"type":"VEC3","name":"accessorPositions"},{"bufferView":1,"byteOffset":9696,"componentType":5126,"count":120,"type":"VEC3","name":"accessorNormals"},{"bufferView":2,"byteOffset":2752,"componentType":5126,"count":120,"type":"VEC2","name":"accessorUVs"},{"bufferView":0,"byteOffset":2016,"componentType":5123,"count":216,"type":"SCALAR","name":"accessorIndices"},{"bufferView":1,"byteOffset":11136,"componentType":5126,"count":120,"max":[1.553925,-0.813664436,-3.520296],"min":[1.18725336,-3.79722452,-5.25073242],"type":"VEC3","name":"accessorPositions"},{"bufferView":1,"byteOffset":12576,"componentType":5126,"count":120,"type":"VEC3","name":"accessorNormals"},{"bufferView":2,"byteOffset":3712,"componentType":5126,"count":120,"type":"VEC2","name":"accessorUVs"},{"bufferView":0,"byteOffset":2448,"componentType":5123,"count":216,"type":"SCALAR","name":"accessorIndices"},{"bufferView":1,"byteOffset":14016,"componentType":5126,"count":120,"max":[2.76285052,0.0227375031,-4.482241],"min":[1.40778756,-2.411397,-5.6818285],"type":"VEC3","name":"accessorPositions"},{"bufferView":1,"byteOffset":15456,"componentType":5126,"count":120,"type":"VEC3","name":"accessorNormals"},{"bufferView":2,"byteOffset":4672,"componentType":5126,"count":120,"type":"VEC2","name":"accessorUVs"},{"bufferView":0,"byteOffset":2880,"componentType":5123,"count":252,"type":"SCALAR","name":"accessorIndices"},{"bufferView":1,"byteOffset":16896,"componentType":5126,"count":96,"max":[2.00187945,4.52682638,0.7500998],"min":[-2.00187945,4.25491333,0.7017095],"type":"VEC3","name":"accessorPositions"},{"bufferView":1,"byteOffset":18048,"componentType":5126,"count":96,"type":"VEC3","name":"accessorNormals"},{"bufferView":2,"byteOffset":5632,"componentType":5126,"count":96,"type":"VEC2","name":"accessorUVs"},{"bufferView":0,"byteOffset":3384,"componentType":5123,"count":240,"type":"SCALAR","name":"accessorIndices"},{"bufferView":1,"byteOffset":19200,"componentType":5126,"count":96,"max":[2.18888,4.44327,0.8436931],"min":[-2.18888,3.830759,0.238789052],"type":"VEC3","name":"accessorPositions"},{"bufferView":1,"byteOffset":20352,"componentType":5126,"count":96,"type":"VEC3","name":"accessorNormals"},{"bufferView":2,"byteOffset":6400,"componentType":5126,"count":96,"type":"VEC2","name":"accessorUVs"},{"bufferView":0,"byteOffset":3864,"componentType":5123,"count":432,"type":"SCALAR","name":"accessorIndices"},{"bufferView":1,"byteOffset":21504,"componentType":5126,"count":188,"max":[1.03331685,6.37450552,-0.7199856],"min":[0.5553049,4.243249,-4.22333527],"type":"VEC3","name":"accessorPositions"},{"bufferView":1,"byteOffset":23760,"componentType":5126,"count":188,"type":"VEC3","name":"accessorNormals"},{"bufferView":2,"byteOffset":7168,"componentType":5126,"count":188,"type":"VEC2","name":"accessorUVs"},{"bufferView":0,"byteOffset":4728,"componentType":5123,"count":504,"type":"SCALAR","name":"accessorIndices"},{"bufferView":1,"byteOffset":26016,"componentType":5126,"count":240,"max":[2.0090518,4.53570843,0.8015103],"min":[-2.0090518,4.249132,0.704981565],"type":"VEC3","name":"accessorPositions"},{"bufferView":1,"byteOffset":28896,"componentType":5126,"count":240,"type":"VEC3","name":"accessorNormals"},{"bufferView":2,"byteOffset":8672,"componentType":5126,"count":240,"type":"VEC2","name":"accessorUVs"},{"bufferView":0,"byteOffset":5736,"componentType":5123,"count":960,"type":"SCALAR","name":"accessorIndices"},{"bufferView":1,"byteOffset":31776,"componentType":5126,"count":266,"max":[2.20642948,5.485977,0.8234649],"min":[-2.206429,4.313769,-0.05258188],"type":"VEC3","name":"accessorPositions"},{"bufferView":1,"byteOffset":34968,"componentType":5126,"count":266,"type":"VEC3","name":"accessorNormals"},{"bufferView":2,"byteOffset":10592,"componentType":5126,"count":266,"type":"VEC2","name":"accessorUVs"},{"bufferView":0,"byteOffset":7656,"componentType":5123,"count":336,"type":"SCALAR","name":"accessorIndices"},{"bufferView":1,"byteOffset":38160,"componentType":5126,"count":132,"max":[2.20816445,4.45422745,0.8700886],"min":[-2.20816422,3.82298779,0.209794968],"type":"VEC3","name":"accessorPositions"},{"bufferView":1,"byteOffset":39744,"componentType":5126,"count":132,"type":"VEC3","name":"accessorNormals"},{"bufferView":2,"byteOffset":12720,"componentType":5126,"count":132,"type":"VEC2","name":"accessorUVs"},{"bufferView":0,"byteOffset":8328,"componentType":5123,"count":1272,"type":"SCALAR","name":"accessorIndices"},{"bufferView":1,"byteOffset":41328,"componentType":5126,"count":424,"max":[1.54142034,6.676164,-0.384721935],"min":[0.509571433,3.923108,-4.396063],"type":"VEC3","name":"accessorPositions"},{"bufferView":1,"byteOffset":46416,"componentType":5126,"count":424,"type":"VEC3","name":"accessorNormals"},{"bufferView":2,"byteOffset":13776,"componentType":5126,"count":424,"type":"VEC2","name":"accessorUVs"},{"bufferView":0,"byteOffset":10872,"componentType":5123,"count":852,"type":"SCALAR","name":"accessorIndices"},{"bufferView":1,"byteOffset":51504,"componentType":5126,"count":200,"max":[1.3615315,6.5796237,0.300269365],"min":[-1.3615315,6.262036,-0.134966165],"type":"VEC3","name":"accessorPositions"},{"bufferView":1,"byteOffset":53904,"componentType":5126,"count":200,"type":"VEC3","name":"accessorNormals"},{"bufferView":2,"byteOffset":17168,"componentType":5126,"count":200,"type":"VEC2","name":"accessorUVs"},{"bufferView":0,"byteOffset":12576,"componentType":5123,"count":480,"type":"SCALAR","name":"accessorIndices"},{"bufferView":1,"byteOffset":56304,"componentType":5126,"count":168,"max":[1.73836446,6.86687231,0.313593775],"min":[-1.7383641,5.90982533,-0.4485328],"type":"VEC3","name":"accessorPositions"},{"bufferView":1,"byteOffset":58320,"componentType":5126,"count":168,"type":"VEC3","name":"accessorNormals"},{"bufferView":2,"byteOffset":18768,"componentType":5126,"count":168,"type":"VEC2","name":"accessorUVs"},{"bufferView":0,"byteOffset":13536,"componentType":5123,"count":576,"type":"SCALAR","name":"accessorIndices"},{"bufferView":1,"byteOffset":60336,"componentType":5126,"count":162,"max":[2.15025616,5.92454529,0.503462732],"min":[-2.150256,4.73803854,-0.243280411],"type":"VEC3","name":"accessorPositions"},{"bufferView":1,"byteOffset":62280,"componentType":5126,"count":162,"type":"VEC3","name":"accessorNormals"},{"bufferView":2,"byteOffset":20112,"componentType":5126,"count":162,"type":"VEC2","name":"accessorUVs"},{"bufferView":0,"byteOffset":14688,"componentType":5123,"count":1488,"type":"SCALAR","name":"accessorIndices"},{"bufferView":1,"byteOffset":64224,"componentType":5126,"count":370,"max":[1.5291487,7.78866959,0.743238032],"min":[-1.5291487,6.38603354,-0.8148072],"type":"VEC3","name":"accessorPositions"},{"bufferView":1,"byteOffset":68664,"componentType":5126,"count":370,"type":"VEC3","name":"accessorNormals"},{"bufferView":2,"byteOffset":21408,"componentType":5126,"count":370,"type":"VEC2","name":"accessorUVs"},{"bufferView":0,"byteOffset":17664,"componentType":5123,"count":408,"type":"SCALAR","name":"accessorIndices"},{"bufferView":1,"byteOffset":73104,"componentType":5126,"count":114,"max":[5.19113159,5.956045,0.80322516],"min":[4.14103937,4.77128363,-0.6031386],"type":"VEC3","name":"accessorPositions"},{"bufferView":1,"byteOffset":74472,"componentType":5126,"count":114,"type":"VEC3","name":"accessorNormals"},{"bufferView":2,"byteOffset":24368,"componentType":5126,"count":114,"type":"VEC2","name":"accessorUVs"},{"bufferView":0,"byteOffset":18480,"componentType":5123,"count":348,"type":"SCALAR","name":"accessorIndices"},{"bufferView":1,"byteOffset":75840,"componentType":5126,"count":98,"max":[3.55504036,6.99576139,0.5838586],"min":[2.32626677,6.37864971,-0.605715752],"type":"VEC3","name":"accessorPositions"},{"bufferView":1,"byteOffset":77016,"componentType":5126,"count":98,"type":"VEC3","name":"accessorNormals"},{"bufferView":2,"byteOffset":25280,"componentType":5126,"count":98,"type":"VEC2","name":"accessorUVs"},{"bufferView":0,"byteOffset":19176,"componentType":5123,"count":1632,"type":"SCALAR","name":"accessorIndices"},{"bufferView":1,"byteOffset":78192,"componentType":5126,"count":514,"max":[0.186395377,1.40931022,0.15186052],"min":[-0.186395526,0.9964352,-0.116163284],"type":"VEC3","name":"accessorPositions"},{"bufferView":1,"byteOffset":84360,"componentType":5126,"count":514,"type":"VEC3","name":"accessorNormals"},{"bufferView":2,"byteOffset":26064,"componentType":5126,"count":514,"type":"VEC2","name":"accessorUVs"},{"bufferView":0,"byteOffset":22440,"componentType":5123,"count":528,"type":"SCALAR","name":"accessorIndices"},{"bufferView":1,"byteOffset":90528,"componentType":5126,"count":168,"max":[0.08363728,1.52536106,0.1921192],"min":[-0.0836374,1.39648056,0.009903662],"type":"VEC3","name":"accessorPositions"},{"bufferView":1,"byteOffset":92544,"componentType":5126,"count":168,"type":"VEC3","name":"accessorNormals"},{"bufferView":2,"byteOffset":30176,"componentType":5126,"count":168,"type":"VEC2","name":"accessorUVs"},{"bufferView":0,"byteOffset":23496,"componentType":5123,"count":648,"type":"SCALAR","name":"accessorIndices"},{"bufferView":1,"byteOffset":94560,"componentType":5126,"count":238,"max":[0.130138338,1.4567982,0.117436394],"min":[-0.13013868,1.32501149,-0.05408225],"type":"VEC3","name":"accessorPositions"},{"bufferView":1,"byteOffset":97416,"componentType":5126,"count":238,"type":"VEC3","name":"accessorNormals"},{"bufferView":2,"byteOffset":31520,"componentType":5126,"count":238,"type":"VEC2","name":"accessorUVs"},{"bufferView":0,"byteOffset":24792,"componentType":5123,"count":120,"type":"SCALAR","name":"accessorIndices"},{"bufferView":1,"byteOffset":100272,"componentType":5126,"count":49,"max":[0.0136011206,1.33541012,0.133677244],"min":[-0.0135996528,1.27610207,0.107595712],"type":"VEC3","name":"accessorPositions"},{"bufferView":1,"byteOffset":100860,"componentType":5126,"count":49,"type":"VEC3","name":"accessorNormals"},{"bufferView":2,"byteOffset":33424,"componentType":5126,"count":49,"type":"VEC2","name":"accessorUVs"},{"bufferView":0,"byteOffset":25032,"componentType":5123,"count":372,"type":"SCALAR","name":"accessorIndices"},{"bufferView":1,"byteOffset":101448,"componentType":5126,"count":132,"max":[0.5006924,8.645729,1.021943],"min":[-0.500693142,8.138724,0.118755735],"type":"VEC3","name":"accessorPositions"},{"bufferView":1,"byteOffset":103032,"componentType":5126,"count":132,"type":"VEC3","name":"accessorNormals"},{"bufferView":2,"byteOffset":33816,"componentType":5126,"count":132,"type":"VEC2","name":"accessorUVs"},{"bufferView":0,"byteOffset":25776,"componentType":5123,"count":2148,"type":"SCALAR","name":"accessorIndices"},{"bufferView":1,"byteOffset":104616,"componentType":5126,"count":609,"max":[0.483249962,9.193341,0.8544584],"min":[-0.483249962,7.85632229,-0.414656878],"type":"VEC3","name":"accessorPositions"},{"bufferView":1,"byteOffset":111924,"componentType":5126,"count":609,"type":"VEC3","name":"accessorNormals"},{"bufferView":2,"byteOffset":34872,"componentType":5126,"count":609,"type":"VEC2","name":"accessorUVs"}],"bufferViews":[{"buffer":0,"byteLength":30072,"name":"bufferViewScalar"},{"buffer":0,"byteOffset":30072,"byteLength":119232,"byteStride":12,"name":"bufferViewFloatVec3"},{"buffer":0,"byteOffset":149304,"byteLength":39744,"byteStride":8,"name":"bufferViewFloatVec2"}],"buffers":[{"uri":"knight_piece_2.bin","byteLength":189048}],"materials":[{"pbrMetallicRoughness":{"baseColorFactor":[0.8,0.8,0.8,1.0],"baseColorTexture":{"index":2,"texCoord":0},"metallicFactor":1.0,"roughnessFactor":1.0,"metallicRoughnessTexture":{"index":1,"texCoord":0}},"normalTexture":{"index":0,"texCoord":0},"occlusionTexture":{"index":1,"texCoord":0},"emissiveFactor":[0.0,0.0,0.0],"alphaMode":"OPAQUE","name":"KnightExport"}],"textures":[{"sampler":0,"source":0,"name":"Knight_Normal.png"},{"sampler":1,"source":1,"name":"Knight_ORM.jpg"},{"sampler":2,"source":2,"name":"KnightExport_baseColor.png"}],"images":[{"uri":"Knight_Normal.png"},{"uri":"Knight_ORM.jpg"},{"uri":"KnightExport_baseColor.png"}],"samplers":[{"magFilter":9729,"minFilter":9987,"wrapS":10497,"wrapT":10497},{"magFilter":9729,"minFilter":9987,"wrapS":10497,"wrapT":10497},{"magFilter":9729,"minFilter":9987,"wrapS":10497,"wrapT":10497}]}