{"asset":{"version":"2.0","generator":"babylon.js glTF exporter for maya 2018 v20190628.7"},"scene":0,"scenes":[{"nodes":[0],"extensions":{}}],"nodes":[{"mesh":0,"translation":[0.0,0.0,0.0],"rotation":[0.0,0.0,0.0,1.0],"scale":[1.0,1.0,1.0],"name":"pCube57"}],"meshes":[{"primitives":[{"attributes":{"POSITION":1,"NORMAL":2,"TANGENT":3,"TEXCOORD_0":4},"indices":0,"mode":4,"material":0}],"name":"pCube57"}],"accessors":[{"bufferView":0,"componentType":5123,"count":20544,"type":"SCALAR","name":"accessorIndices"},{"bufferView":1,"componentType":5126,"count":8396,"max":[4.378386,0.125,-19.1302567],"min":[-4.37894773,-4.76567936,-25.9310036],"type":"VEC3","name":"accessorPositions"},{"bufferView":1,"byteOffset":100752,"componentType":5126,"count":8396,"type":"VEC3","name":"accessorNormals"},{"bufferView":2,"componentType":5126,"count":8396,"type":"VEC4","name":"accessorTangents"},{"bufferView":3,"componentType":5126,"count":8396,"type":"VEC2","name":"accessorUVs"}],"bufferViews":[{"buffer":0,"byteLength":41088,"name":"bufferViewScalar"},{"buffer":0,"byteOffset":41088,"byteLength":201504,"byteStride":12,"name":"bufferViewFloatVec3"},{"buffer":0,"byteOffset":242592,"byteLength":134336,"byteStride":16,"name":"bufferViewFloatVec4"},{"buffer":0,"byteOffset":376928,"byteLength":67168,"byteStride":8,"name":"bufferViewFloatVec2"}],"buffers":[{"uri":"cart_piece_1.bin","byteLength":444096}],"materials":[{"pbrMetallicRoughness":{"baseColorFactor":[0.8,0.8,0.8,1.0],"baseColorTexture":{"index":2,"texCoord":0},"metallicFactor":1.0,"roughnessFactor":1.0,"metallicRoughnessTexture":{"index":1,"texCoord":0}},"normalTexture":{"index":0,"texCoord":0},"occlusionTexture":{"index":1,"texCoord":0},"emissiveFactor":[0.0,0.0,0.0],"alphaMode":"OPAQUE","name":"cart_mat_CartExport"}],"textures":[{"sampler":0,"source":0,"name":"cart_normal.png"},{"sampler":1,"source":1,"name":"cart_ORM.jpg"},{"sampler":2,"source":2,"name":"cart_baseColor.jpg"}],"images":[{"uri":"cart_normal.png"},{"uri":"cart_ORM.jpg"},{"uri":"cart_baseColor.jpg"}],"samplers":[{"magFilter":9729,"minFilter":9987,"wrapS":10497,"wrapT":10497},{"magFilter":9729,"minFilter":9987,"wrapS":10497,"wrapT":10497},{"magFilter":9729,"minFilter":9987,"wrapS":10497,"wrapT":10497}]}