{"asset":{"version":"2.0","generator":"babylon.js glTF exporter for maya 2018 v20190628.7"},"scene":0,"scenes":[{"nodes":[0],"extensions":{}}],"nodes":[{"mesh":0,"translation":[0.0,0.0,0.0],"rotation":[0.0,0.0,0.0,1.0],"scale":[1.0,1.0,1.0],"name":"pCube61"}],"meshes":[{"primitives":[{"attributes":{"POSITION":1,"NORMAL":2,"TANGENT":3,"TEXCOORD_0":4},"indices":0,"mode":4,"material":0}],"name":"pCube61"}],"accessors":[{"bufferView":0,"componentType":5123,"count":3948,"type":"SCALAR","name":"accessorIndices"},{"bufferView":1,"componentType":5126,"count":1722,"max":[4.0,0.175304949,-17.75],"min":[-4.0,-1.59357929,-25.2807884],"type":"VEC3","name":"accessorPositions"},{"bufferView":1,"byteOffset":20664,"componentType":5126,"count":1722,"type":"VEC3","name":"accessorNormals"},{"bufferView":2,"componentType":5126,"count":1722,"type":"VEC4","name":"accessorTangents"},{"bufferView":3,"componentType":5126,"count":1722,"type":"VEC2","name":"accessorUVs"}],"bufferViews":[{"buffer":0,"byteLength":7896,"name":"bufferViewScalar"},{"buffer":0,"byteOffset":7896,"byteLength":41328,"byteStride":12,"name":"bufferViewFloatVec3"},{"buffer":0,"byteOffset":49224,"byteLength":27552,"byteStride":16,"name":"bufferViewFloatVec4"},{"buffer":0,"byteOffset":76776,"byteLength":13776,"byteStride":8,"name":"bufferViewFloatVec2"}],"buffers":[{"uri":"cart_piece_2.bin","byteLength":90552}],"materials":[{"pbrMetallicRoughness":{"baseColorFactor":[0.8,0.8,0.8,1.0],"baseColorTexture":{"index":2,"texCoord":0},"metallicFactor":1.0,"roughnessFactor":1.0,"metallicRoughnessTexture":{"index":1,"texCoord":0}},"normalTexture":{"index":0,"texCoord":0},"occlusionTexture":{"index":1,"texCoord":0},"emissiveFactor":[0.0,0.0,0.0],"alphaMode":"OPAQUE","name":"cart_mat_CartExport"}],"textures":[{"sampler":0,"source":0,"name":"cart_normal.png"},{"sampler":1,"source":1,"name":"cart_ORM.jpg"},{"sampler":2,"source":2,"name":"cart_baseColor.jpg"}],"images":[{"uri":"cart_normal.png"},{"uri":"cart_ORM.jpg"},{"uri":"cart_baseColor.jpg"}],"samplers":[{"magFilter":9729,"minFilter":9987,"wrapS":10497,"wrapT":10497},{"magFilter":9729,"minFilter":9987,"wrapS":10497,"wrapT":10497},{"magFilter":9729,"minFilter":9987,"wrapS":10497,"wrapT":10497}]}